<?xml version="1.0" encoding="utf-8"?>
<!-- Generator: Adobe Illustrator 27.0.0, SVG Export Plug-In . SVG Version: 6.00 Build 0)  -->
<svg version="1.1" xmlns="http://www.w3.org/2000/svg" xmlns:xlink="http://www.w3.org/1999/xlink" x="0px" y="0px"
	 viewBox="0 0 340.73 328.25" style="enable-background:new 0 0 340.73 328.25;" xml:space="preserve">
<style type="text/css">
	.st0{fill:url(#SVGID_1_);}
	.st1{fill:url(#SVGID_00000047038021764856665780000007650156550912552629_);}
	.st2{fill:url(#SVGID_00000072259814352327796130000017473446409963731882_);}
</style>
<g id="Back">
</g>
<g id="Footer">
</g>
<g id="Sec.3">
</g>
<g id="Sec.2">
</g>
<g id="home">
	<g>
		<linearGradient id="SVGID_1_" gradientUnits="userSpaceOnUse" x1="44.5109" y1="164.1239" x2="277.6143" y2="164.1239">
			<stop  offset="0.1964" style="stop-color:#9122F3"/>
			<stop  offset="0.9993" style="stop-color:#493BC6;stop-opacity:0.9"/>
		</linearGradient>
		<path class="st0" d="M266.52,164.18c3.74-4.51,6.52-9.55,8.35-15.12c1.83-5.56,2.74-11.28,2.74-17.16c0-4.12-0.47-8.21-1.4-12.26
			c-0.93-4.05-2.32-7.9-4.14-11.56c-1.83-3.66-4.13-7.05-6.89-10.18c-2.76-3.13-5.98-5.85-9.66-8.14c-3.68-2.3-7.79-4.1-12.34-5.4
			c-4.55-1.3-9.57-1.96-15.06-1.96H82.5c-2.8,0-5.35,0.45-7.65,1.34c-2.3,0.9-4.27,2.17-5.92,3.82c-1.65,1.65-2.93,3.63-3.82,5.92
			c-0.9,2.3-1.34,4.84-1.34,7.65v104.32l-19.25,40.37H82.5h13.8h131.83c5.56,0,10.65-0.64,15.26-1.93
			c4.61-1.28,8.75-3.05,12.43-5.31c3.68-2.26,6.88-4.94,9.6-8.06c2.72-3.11,4.99-6.48,6.8-10.1c1.81-3.62,3.16-7.44,4.06-11.47
			c0.89-4.03,1.34-8.08,1.34-12.17c-0.04-5.87-0.98-11.63-2.83-17.28C272.94,173.89,270.18,168.77,266.52,164.18z"/>
		<g>
			<g>
				
					<linearGradient id="SVGID_00000080181961631660793150000004287546255082008986_" gradientUnits="userSpaceOnUse" x1="283.3344" y1="236.3136" x2="291.1369" y2="236.3136">
					<stop  offset="0.1964" style="stop-color:#9122F3"/>
					<stop  offset="0.9993" style="stop-color:#493BC6;stop-opacity:0.9"/>
				</linearGradient>
				<path style="fill:url(#SVGID_00000080181961631660793150000004287546255082008986_);" d="M291.14,240.53h-2.62l-1.96-2.73h-0.83
					v2.73h-2.38v-8.43h4.12c2.16,0,3.28,1.38,3.28,2.9c0,1.04-0.36,1.91-1.78,2.54l2.19,2.84V240.53z M285.72,234v2.02h1.76
					c0.63,0,0.9-0.47,0.9-0.98c0-0.53-0.3-1.05-0.93-1.05H285.72z"/>
			</g>
			<g>
				
					<linearGradient id="SVGID_00000075135046335684482600000015113454472472852362_" gradientUnits="userSpaceOnUse" x1="277.6143" y1="236.2438" x2="296.2188" y2="236.2438">
					<stop  offset="0.1964" style="stop-color:#9122F3"/>
					<stop  offset="0.9993" style="stop-color:#493BC6;stop-opacity:0.9"/>
				</linearGradient>
				<path style="fill:url(#SVGID_00000075135046335684482600000015113454472472852362_);" d="M286.92,245.55
					c-5.13,0-9.3-4.17-9.3-9.3s4.17-9.3,9.3-9.3c5.13,0,9.3,4.17,9.3,9.3S292.05,245.55,286.92,245.55z M286.92,227.95
					c-4.58,0-8.3,3.72-8.3,8.3s3.72,8.3,8.3,8.3s8.3-3.72,8.3-8.3S291.49,227.95,286.92,227.95z"/>
			</g>
		</g>
	</g>
</g>
</svg>
