<?xml version="1.0" encoding="utf-8"?>
<!-- Generator: Adobe Illustrator 27.0.0, SVG Export Plug-In . SVG Version: 6.00 Build 0)  -->
<svg version="1.1" id="Capa_1" xmlns="http://www.w3.org/2000/svg" xmlns:xlink="http://www.w3.org/1999/xlink" x="0px" y="0px"
	 viewBox="0 0 581.1 141.7" style="enable-background:new 0 0 581.1 141.7;" xml:space="preserve">
<style type="text/css">
	.st0{fill:url(#SVGID_1_);}
	.st1{fill:#FFFFFF;}
</style>
<g>
	
		<linearGradient id="SVGID_1_" gradientUnits="userSpaceOnUse" x1="3.9612" y1="73.0446" x2="577.1312" y2="73.0446" gradientTransform="matrix(1 0 0 -1 0 144.0107)">
		<stop  offset="0.1964" style="stop-color:#9122F3"/>
		<stop  offset="0.9993" style="stop-color:#493BC6;stop-opacity:0.9"/>
	</linearGradient>
	<path class="st0" d="M508.9,139.2H72.2C34.5,139.2,4,108.7,4,71l0,0C4,33.3,34.5,2.7,72.2,2.7h436.7c37.7,0,68.3,30.6,68.3,68.3
		l0,0C577.1,108.7,546.6,139.2,508.9,139.2z"/>
	<g>
		<path class="st1" d="M129.8,84.9c-0.2,0-0.4-0.2-0.6-0.6l-6.8-16.4l-1.8,17.3c0,0.5-0.2,0.7-0.7,0.7h-1.6c-0.5,0-0.7-0.2-0.7-0.7
			l2.4-21.6c0-0.2,0.1-0.4,0.2-0.5c0.2-0.1,0.3-0.2,0.5-0.2h2.4c0.3,0,0.6,0.2,0.7,0.6l6.7,16.4l6.8-16.4c0.1-0.2,0.1-0.3,0.2-0.4
			c0.1-0.1,0.2-0.2,0.4-0.2h2.5c0.2,0,0.4,0.1,0.5,0.2s0.2,0.3,0.2,0.5l2.4,21.6c0,0.5-0.2,0.7-0.7,0.7h-1.6c-0.5,0-0.7-0.2-0.7-0.7
			l-1.8-17.3l-6.8,16.4c-0.2,0.4-0.4,0.6-0.6,0.6H129.8z"/>
		<path class="st1" d="M151.7,85.3c-0.1,0.2-0.2,0.3-0.3,0.4c-0.1,0.1-0.3,0.2-0.5,0.2h-1.6c-0.5,0-0.7-0.2-0.7-0.5
			c0-0.1,0-0.1,0-0.2s0-0.1,0-0.1c0,0,0-0.1,0-0.1l8.9-21.4c0,0,0.1-0.1,0.1-0.2s0.1-0.1,0.1-0.2s0.1-0.1,0.2-0.2
			c0.1,0,0.2-0.1,0.4-0.1h1c0.1,0,0.3,0,0.4,0.1s0.2,0.1,0.2,0.2s0.1,0.1,0.1,0.2s0.1,0.1,0.1,0.2l8.9,21.4c0,0.1,0,0.1,0,0.2
			s0,0.1,0,0.2s0,0.1,0,0.1c0,0.4-0.2,0.5-0.7,0.5h-1.6c-0.2,0-0.4-0.1-0.5-0.2c-0.1-0.1-0.2-0.2-0.3-0.4l-1.7-4.2h-10.9
			c-0.4,0.9-0.7,1.8-1,2.5C152.1,84.3,151.8,84.8,151.7,85.3z M154.6,78h8.4l-4.2-10.6L154.6,78z M161,59.9
			c-0.2,0.4-0.5,0.7-0.8,0.7h-1.4c-0.2,0-0.3,0-0.4-0.1s-0.1-0.2-0.1-0.3c0-0.1,0-0.2,0.1-0.2c0-0.1,0.1-0.2,0.1-0.3l1.4-3.2
			c0.1-0.2,0.2-0.4,0.4-0.5c0.1-0.1,0.3-0.2,0.5-0.2h1.5c0.3,0,0.4,0.1,0.4,0.3c0,0.1,0,0.2,0,0.3c0,0.1-0.1,0.2-0.1,0.3L161,59.9z"
			/>
		<path class="st1" d="M188.2,67.9c-0.1-0.1-0.4-0.3-0.7-0.5c-0.3-0.3-0.7-0.5-1.2-0.8c-0.5-0.3-1-0.5-1.6-0.8
			c-0.6-0.2-1.2-0.3-1.9-0.3c-0.8,0-1.5,0.1-2.1,0.3c-0.6,0.2-1.1,0.5-1.4,0.8c-0.4,0.3-0.7,0.7-0.8,1.1c-0.2,0.4-0.3,0.8-0.3,1.2
			c0,0.6,0.2,1.1,0.6,1.4s0.9,0.7,1.5,1c0.6,0.3,1.3,0.6,2.1,0.8c0.8,0.2,1.6,0.5,2.4,0.7s1.6,0.6,2.4,0.9s1.5,0.7,2.1,1.2
			c0.6,0.5,1.1,1.1,1.5,1.7c0.4,0.7,0.6,1.5,0.6,2.4c0,1.1-0.2,2.1-0.7,2.9s-1.1,1.6-1.8,2.3c-0.8,0.6-1.7,1.1-2.7,1.4
			c-1.1,0.3-2.2,0.5-3.4,0.5c-0.8,0-1.6-0.1-2.4-0.3s-1.6-0.4-2.3-0.8c-0.7-0.3-1.4-0.8-2-1.3c-0.6-0.5-1.2-1.1-1.7-1.7
			c-0.1-0.2-0.2-0.3-0.2-0.5s0.1-0.3,0.3-0.5l1.2-1c0.2-0.2,0.4-0.2,0.5-0.2c0.2,0,0.3,0.1,0.4,0.3l0.2,0.2c0.4,0.5,0.9,0.9,1.5,1.3
			c0.6,0.3,1.1,0.7,1.6,0.9c0.6,0.2,1.1,0.4,1.6,0.5c0.5,0.1,0.9,0.2,1.3,0.2c0.6,0,1.3-0.1,1.9-0.2c0.7-0.2,1.3-0.4,1.8-0.8
			c0.6-0.3,1-0.8,1.3-1.3c0.4-0.5,0.5-1.1,0.5-1.8c0-0.6-0.2-1.1-0.5-1.5c-0.4-0.4-0.8-0.8-1.4-1.1s-1.3-0.6-2.1-0.8
			c-0.8-0.2-1.6-0.5-2.5-0.8c-1.2-0.4-2.3-0.7-3.2-1.1c-0.9-0.4-1.6-0.8-2.2-1.3s-1-1-1.3-1.6c-0.3-0.6-0.4-1.3-0.4-2
			c0-0.9,0.2-1.8,0.6-2.6c0.4-0.8,0.9-1.5,1.6-2s1.5-1,2.5-1.3c1-0.3,2.1-0.5,3.3-0.5c0.6,0,1.3,0.1,2,0.2c0.7,0.2,1.4,0.4,2.1,0.7
			s1.3,0.7,1.9,1c0.6,0.4,1.1,0.9,1.5,1.4c0.1,0.2,0.2,0.3,0.2,0.5c0,0.2-0.1,0.3-0.2,0.5l-1.1,1.1c-0.2,0.2-0.3,0.2-0.5,0.2
			C188.5,68.1,188.4,68,188.2,67.9z"/>
		<path class="st1" d="M210.3,63.6c0-0.2,0.1-0.3,0.2-0.5s0.3-0.2,0.5-0.2h1.6c0.2,0,0.4,0.1,0.5,0.2s0.2,0.3,0.2,0.5v21.6
			c0,0.5-0.2,0.7-0.7,0.7H211c-0.4,0-0.7-0.2-0.7-0.7V63.6z"/>
		<path class="st1" d="M237.8,85.8c-0.2,0-0.4-0.1-0.6-0.3l-13.5-18.1v17.8c0,0.5-0.2,0.7-0.7,0.7h-1.6c-0.4,0-0.7-0.2-0.7-0.7V63.6
			c0-0.2,0.1-0.4,0.2-0.5c0.1-0.1,0.3-0.2,0.5-0.2h2.1c0.3,0,0.5,0.1,0.6,0.3l13.2,17.5V63.5c0.1-0.4,0.3-0.6,0.7-0.6h1.6
			c0.2,0,0.4,0.1,0.5,0.2s0.2,0.3,0.2,0.5v21.6c0,0.5-0.2,0.7-0.8,0.7L237.8,85.8L237.8,85.8z"/>
		<path class="st1" d="M247.7,63.6c0-0.5,0.2-0.7,0.7-0.7H263c0.5,0,0.7,0.2,0.7,0.7v1.5c0,0.2-0.1,0.4-0.2,0.5
			c-0.1,0.2-0.3,0.2-0.5,0.2h-12.3v7.6c1.6,0,3.2,0,4.8,0s3.2,0,4.9,0c0.2,0,0.4,0.1,0.5,0.2s0.2,0.3,0.2,0.6v1.6
			c0,0.2-0.1,0.3-0.2,0.5c-0.1,0.1-0.3,0.2-0.5,0.2h-9.7v8.7c0,0.4-0.2,0.7-0.7,0.7h-1.6c-0.4,0-0.7-0.2-0.7-0.7L247.7,63.6
			L247.7,63.6z"/>
		<path class="st1" d="M280.7,62.6c1.1,0,2.1,0.1,3.1,0.4c1,0.3,1.9,0.7,2.8,1.2c0.9,0.5,1.7,1.1,2.4,1.8s1.3,1.5,1.9,2.4
			c0.5,0.9,0.9,1.8,1.2,2.8c0.3,1,0.4,2.1,0.4,3.2c0,1.1-0.1,2.1-0.4,3.1s-0.7,1.9-1.2,2.8c-0.5,0.9-1.1,1.7-1.9,2.4
			c-0.7,0.7-1.5,1.3-2.4,1.8c-0.9,0.5-1.8,0.9-2.8,1.2c-1,0.3-2.1,0.4-3.1,0.4s-2.1-0.1-3.1-0.4c-1-0.3-1.9-0.7-2.8-1.2
			c-0.9-0.5-1.7-1.1-2.4-1.8c-0.7-0.7-1.3-1.5-1.8-2.4c-0.5-0.9-0.9-1.8-1.2-2.8s-0.4-2.1-0.4-3.2c0-1.1,0.1-2.1,0.4-3.1
			s0.7-1.9,1.2-2.8s1.1-1.7,1.9-2.4s1.5-1.3,2.4-1.8c0.9-0.5,1.8-0.9,2.8-1.2C278.5,62.7,279.6,62.6,280.7,62.6z M271.8,74.3
			c0,0.8,0.1,1.6,0.3,2.3s0.5,1.4,0.9,2.1c0.4,0.7,0.8,1.2,1.4,1.8s1.1,1,1.8,1.4c0.6,0.4,1.4,0.7,2.1,0.9s1.5,0.3,2.3,0.3
			c0.8,0,1.6-0.1,2.3-0.3s1.5-0.5,2.1-0.9s1.2-0.8,1.8-1.4s1-1.1,1.4-1.8c0.4-0.7,0.7-1.3,0.9-2.1c0.2-0.8,0.3-1.5,0.3-2.3
			c0-1.2-0.2-2.4-0.7-3.4c-0.5-1.1-1.1-2-1.9-2.8c-0.8-0.8-1.7-1.4-2.8-1.9c-1.1-0.5-2.2-0.7-3.4-0.7c-0.8,0-1.6,0.1-2.3,0.3
			c-0.8,0.2-1.5,0.5-2.1,0.9s-1.2,0.8-1.8,1.4s-1,1.1-1.4,1.8s-0.7,1.3-0.9,2.1C271.9,72.8,271.8,73.5,271.8,74.3z"/>
		<path class="st1" d="M299.2,63.6c0-0.5,0.2-0.7,0.7-0.7h8.9c1,0,2,0.2,2.9,0.6c0.9,0.4,1.7,0.9,2.3,1.6c0.7,0.7,1.2,1.4,1.5,2.3
			c0.4,0.9,0.6,1.8,0.6,2.8c0,0.7-0.1,1.4-0.3,2.1c-0.2,0.7-0.5,1.3-0.8,1.8c-0.4,0.6-0.8,1.1-1.3,1.5c-0.5,0.4-1.1,0.8-1.7,1.1
			l4.1,8.4v0.2c0,0.3-0.2,0.5-0.6,0.5h-1.9c-0.3,0-0.6-0.2-0.7-0.6l-3.7-7.8c-0.1,0-0.2,0-0.3,0c-0.1,0-0.2,0-0.4,0
			c-0.2,0-0.4,0-0.7,0s-0.7,0-1.2,0s-1.1,0-1.8,0s-1.6,0-2.6,0v7.7c0,0.5-0.2,0.7-0.7,0.7h-1.6c-0.5,0-0.7-0.2-0.7-0.7L299.2,63.6
			L299.2,63.6z M313.2,70.2c0-0.6-0.1-1.1-0.3-1.6s-0.5-1-0.9-1.4c-0.4-0.4-0.9-0.7-1.4-1c-0.5-0.2-1.1-0.4-1.7-0.4h-6.6v8.7h6.7
			c0.6,0,1.2-0.1,1.7-0.4s1-0.6,1.4-1c0.4-0.4,0.7-0.9,0.9-1.4C313.1,71.3,313.2,70.8,313.2,70.2z"/>
		<path class="st1" d="M334.1,84.9c-0.2,0-0.4-0.2-0.6-0.6l-6.8-16.4l-1.8,17.3c0,0.5-0.2,0.7-0.7,0.7h-1.6c-0.5,0-0.7-0.2-0.7-0.7
			l2.4-21.6c0-0.2,0.1-0.4,0.2-0.5c0.1-0.1,0.3-0.2,0.5-0.2h2.4c0.3,0,0.6,0.2,0.7,0.6l6.7,16.4l6.8-16.4c0-0.2,0.1-0.3,0.2-0.4
			s0.2-0.2,0.4-0.2h2.5c0.2,0,0.4,0.1,0.5,0.2s0.2,0.3,0.2,0.5l2.4,21.6c0,0.5-0.2,0.7-0.7,0.7h-1.6c-0.5,0-0.7-0.2-0.7-0.7
			L343,67.9l-6.8,16.4c-0.2,0.4-0.4,0.6-0.6,0.6H334.1z"/>
		<path class="st1" d="M356,85.3c-0.1,0.2-0.2,0.3-0.3,0.4c-0.1,0.1-0.3,0.2-0.5,0.2h-1.6c-0.5,0-0.7-0.2-0.7-0.5c0-0.1,0-0.1,0-0.2
			s0-0.1,0-0.1c0,0,0-0.1,0-0.1l8.9-21.4c0,0,0-0.1,0.1-0.2s0.1-0.1,0.1-0.2s0.1-0.1,0.2-0.2s0.2-0.1,0.4-0.1h1c0.2,0,0.3,0,0.4,0.1
			s0.2,0.1,0.2,0.2c0,0.1,0.1,0.1,0.1,0.2s0.1,0.1,0.1,0.2l8.9,21.4c0,0.1,0,0.1,0,0.2s0,0.1,0,0.2s0,0.1,0,0.1
			c0,0.4-0.2,0.5-0.7,0.5H371c-0.2,0-0.4-0.1-0.5-0.2s-0.2-0.2-0.3-0.4l-1.7-4.2h-10.9c-0.4,0.9-0.7,1.8-1,2.5
			C356.3,84.3,356.1,84.8,356,85.3z M358.9,78h8.4l-4.2-10.6L358.9,78z"/>
		<path class="st1" d="M397.2,64.8c0.1,0.1,0.2,0.2,0.3,0.3c0.1,0.1,0.1,0.2,0.1,0.3c0,0.1,0,0.3-0.1,0.4l-0.8,1.4
			c-0.2,0.2-0.4,0.4-0.5,0.4c-0.1,0-0.1,0-0.2-0.1s-0.2-0.1-0.3-0.2c-0.7-0.5-1.5-0.9-2.3-1.2s-1.7-0.4-2.6-0.5
			c-1.3,0-2.6,0.2-3.7,0.7c-1.1,0.5-2.1,1.1-2.9,1.9s-1.5,1.8-1.9,2.8c-0.5,1.1-0.7,2.2-0.7,3.4c0,1.3,0.2,2.4,0.7,3.5
			c0.5,1.1,1.1,2,1.9,2.8c0.8,0.8,1.7,1.4,2.8,1.8c1.1,0.4,2.2,0.7,3.3,0.7c0.4,0,0.9,0,1.3-0.1c0.4-0.1,0.9-0.2,1.3-0.3
			s0.9-0.3,1.4-0.6c0.5-0.2,1-0.5,1.5-0.9c0.2-0.1,0.4-0.2,0.5-0.2c0.2,0,0.4,0.1,0.5,0.4l0.9,1.5c0.1,0.1,0.1,0.3,0.1,0.4
			c0,0.2-0.1,0.4-0.4,0.6c-1,0.7-2,1.2-3.2,1.6c-1.2,0.4-2.4,0.6-3.8,0.6c-1.1,0-2.1-0.1-3.1-0.4c-1-0.3-1.9-0.7-2.8-1.2
			c-0.9-0.5-1.7-1.1-2.4-1.8c-0.7-0.7-1.3-1.5-1.8-2.4c-0.5-0.9-0.9-1.8-1.2-2.8s-0.4-2.1-0.4-3.2c0-1.1,0.1-2.1,0.4-3.1
			s0.7-1.9,1.2-2.8s1.1-1.7,1.9-2.4c0.7-0.7,1.5-1.3,2.4-1.8c0.9-0.5,1.8-0.9,2.8-1.2s2-0.4,3.1-0.4c1.3,0,2.5,0.2,3.7,0.6
			C395.1,63.5,396.1,64.1,397.2,64.8z"/>
		<path class="st1" d="M403.8,63.6c0-0.2,0.1-0.3,0.2-0.5s0.3-0.2,0.5-0.2h1.6c0.2,0,0.4,0.1,0.5,0.2c0.1,0.1,0.2,0.3,0.2,0.5v21.6
			c0,0.5-0.2,0.7-0.7,0.7h-1.6c-0.5,0-0.7-0.2-0.7-0.7V63.6z"/>
		<path class="st1" d="M425.4,62.6c1.1,0,2.1,0.1,3.1,0.4s1.9,0.7,2.8,1.2c0.9,0.5,1.7,1.1,2.4,1.8s1.3,1.5,1.9,2.4
			c0.5,0.9,0.9,1.8,1.2,2.8c0.3,1,0.4,2.1,0.4,3.2c0,1.1-0.1,2.1-0.4,3.1s-0.7,1.9-1.2,2.8c-0.5,0.9-1.1,1.7-1.9,2.4
			c-0.7,0.7-1.5,1.3-2.4,1.8c-0.9,0.5-1.8,0.9-2.8,1.2c-1,0.3-2.1,0.4-3.2,0.4c-1.1,0-2.1-0.1-3.1-0.4c-1-0.3-1.9-0.7-2.8-1.2
			c-0.9-0.5-1.7-1.1-2.4-1.8c-0.7-0.7-1.3-1.5-1.8-2.4c-0.5-0.9-0.9-1.8-1.2-2.8s-0.4-2.1-0.4-3.2c0-1.1,0.1-2.1,0.4-3.1
			s0.7-1.9,1.2-2.8s1.1-1.7,1.9-2.4c0.7-0.7,1.5-1.3,2.4-1.8c0.9-0.5,1.8-0.9,2.8-1.2C423.2,62.7,424.3,62.6,425.4,62.6z
			 M416.5,74.3c0,0.8,0.1,1.6,0.3,2.3c0.2,0.8,0.5,1.4,0.9,2.1c0.4,0.7,0.8,1.2,1.4,1.8s1.1,1,1.8,1.4c0.6,0.4,1.4,0.7,2.1,0.9
			s1.5,0.3,2.3,0.3c0.8,0,1.6-0.1,2.3-0.3s1.5-0.5,2.1-0.9s1.2-0.8,1.8-1.4s1-1.1,1.4-1.8c0.4-0.7,0.7-1.3,0.9-2.1
			c0.2-0.8,0.3-1.5,0.3-2.3c0-1.2-0.2-2.4-0.7-3.4c-0.5-1.1-1.1-2-1.9-2.8s-1.7-1.4-2.8-1.9s-2.2-0.7-3.4-0.7
			c-0.8,0-1.6,0.1-2.3,0.3c-0.8,0.2-1.5,0.5-2.1,0.9c-0.7,0.4-1.2,0.8-1.8,1.4s-1,1.1-1.4,1.8s-0.7,1.3-0.9,2.1
			C416.6,72.8,416.5,73.5,416.5,74.3z M426.7,60.2c-0.2,0.4-0.5,0.7-0.8,0.7h-1.4c-0.2,0-0.3,0-0.4-0.1s-0.1-0.2-0.1-0.3
			c0-0.1,0-0.2,0-0.2c0-0.1,0-0.2,0.1-0.3l1.4-3.2c0.1-0.2,0.2-0.4,0.4-0.5c0.1-0.1,0.3-0.2,0.5-0.2h1.5c0.3,0,0.4,0.1,0.4,0.3
			c0,0.1,0,0.2,0,0.3c0,0.1,0,0.2-0.1,0.3L426.7,60.2z"/>
		<path class="st1" d="M461,85.8c-0.2,0-0.4-0.1-0.6-0.3l-13.5-18.1v17.8c0,0.5-0.2,0.7-0.7,0.7h-1.6c-0.5,0-0.7-0.2-0.7-0.7V63.6
			c0-0.2,0.1-0.4,0.2-0.5c0.1-0.1,0.3-0.2,0.5-0.2h2.1c0.3,0,0.5,0.1,0.6,0.3l13.2,17.5V63.5c0.1-0.4,0.3-0.6,0.7-0.6h1.6
			c0.2,0,0.4,0.1,0.5,0.2s0.2,0.3,0.2,0.5v21.6c0,0.5-0.2,0.7-0.8,0.7L461,85.8L461,85.8z"/>
	</g>
</g>
</svg>
