<?xml version="1.0" encoding="utf-8"?>
<!-- Generator: Adobe Illustrator 22.0.0, SVG Export Plug-In . SVG Version: 6.00 Build 0)  -->
<svg version="1.1" id="Capa_1" xmlns="http://www.w3.org/2000/svg" xmlns:xlink="http://www.w3.org/1999/xlink" x="0px" y="0px"
	 viewBox="0 0 498.3 616.5" style="enable-background:new 0 0 498.3 616.5;" xml:space="preserve">
<style type="text/css">
	.st0{opacity:8.000000e-02;}
	.st1{clip-path:url(#SVGID_2_);}
	.st2{opacity:0.6;fill:#791FF1;enable-background:new    ;}
	.st3{fill:#FFFFFF;}
	.st4{opacity:0.3;fill:#0D0920;enable-background:new    ;}
	.st5{clip-path:url(#SVGID_4_);}
	.st6{fill:url(#SVGID_5_);}
</style>
<g id="Back">
</g>
<g id="Footer">
</g>
<g id="Sec.3">
</g>
<g id="Sec.2">
</g>
<g id="home">
	<g class="st0">
		<g>
			<defs>
				<circle id="SVGID_1_" cx="222.7" cy="342.4" r="179.5"/>
			</defs>
			<clipPath id="SVGID_2_">
				<use xlink:href="#SVGID_1_"  style="overflow:visible;"/>
			</clipPath>
			<g id="plBRrg_00000070091060795200960260000004459004416969161097_" class="st1">
				
					<image style="overflow:visible;enable-background:new    ;" width="1199" height="1595" id="plBRrg_00000051349277013320126670000016419852059531948445_" xlink:href="A7AE436C.jpg"  transform="matrix(0.3685 0 0 0.3685 -10.4916 91.5145)">
				</image>
			</g>
		</g>
	</g>
	<circle class="st2" cx="222.7" cy="342.4" r="179.5"/>
	<circle class="st3" cx="222.7" cy="342.4" r="43.8"/>
	<g>
		
			<image style="overflow:visible;enable-background:new    ;" width="427" height="428" xlink:href="A7AE436C.png"  transform="matrix(0.2756 0 0 0.2756 -17.9028 18)">
		</image>
	</g>
	<path class="st4" d="M224.4,536.3v-0.6c51.6,0,100.1-20.1,136.6-56.6c36.5-36.5,56.6-85,56.6-136.6S397.5,242.4,361,205.9
		s-85-56.6-136.6-56.6v-0.6c51.8,0,100.4,20.2,137,56.8c36.6,36.6,56.8,85.3,56.8,137S398,443,361.4,479.6
		C324.8,516.2,276.2,536.3,224.4,536.3z"/>
	<g>
		<path d="M247.1,343h-24.5c-0.3,0-0.6-0.3-0.6-0.6s0.3-0.6,0.6-0.6h24.5c0.3,0,0.6,0.3,0.6,0.6S247.4,343,247.1,343z"/>
		<path d="M241,349.9c-0.1,0-0.3-0.1-0.4-0.2c-0.2-0.2-0.2-0.6,0-0.8l6.5-6.5l-6.5-6.5c-0.2-0.2-0.2-0.6,0-0.8
			c0.2-0.2,0.6-0.2,0.8,0l6.9,6.9c0.2,0.2,0.2,0.6,0,0.8l-6.9,6.9C241.2,349.9,241.1,349.9,241,349.9z"/>
	</g>
	<g>
		
			<image style="overflow:visible;enable-background:new    ;" width="391" height="388" xlink:href="A7AE436B.png"  transform="matrix(0.2743 0 0 0.2743 407.8484 294.6229)">
		</image>
	</g>
	<g>
		
			<image style="overflow:visible;opacity:0.25;enable-background:new    ;" width="1163" height="1786" xlink:href="A7AE4374.png"  transform="matrix(0.2741 0 0 0.2741 -16.1206 94.875)">
		</image>
		<g>
			<g>
				<g>
					<defs>
						<rect id="SVGID_3_" x="-6.8" y="103.7" width="284.1" height="455.8"/>
					</defs>
					<clipPath id="SVGID_4_">
						<use xlink:href="#SVGID_3_"  style="overflow:visible;"/>
					</clipPath>
					
						<g id="vista-frontal-bombillas-encendidas-apagadas-como-concepto-idea.psd_00000173151770686363466100000010157440911324304824_" class="st5">
						
							<image style="overflow:visible;enable-background:new    ;" width="6198" height="3999" id="vista-frontal-bombillas-encendidas-apagadas-como-concepto-idea.psd_00000078742719411954600330000014551470604541449600_" xlink:href="A7AE4377.png"  transform="matrix(0.2877 0 0 0.2877 -686.5331 -322.2234)">
						</image>
					</g>
				</g>
			</g>
		</g>
	</g>
	<g>
		
			<image style="overflow:visible;opacity:0.25;enable-background:new    ;" width="454" height="486" xlink:href="A7AE4375.png"  transform="matrix(0.2749 0 0 0.2749 93.0564 391.8591)">
		</image>
		<g>
			<path class="st3" d="M202.8,411.3c-0.3-6.6-1.1-13.2-3.2-19.4c-0.2-0.5-0.6-0.8-1-0.9c0,1.3-0.4,2.6-1.1,3.6
				c3.2,10.8,3.1,22.6,1.8,33.7c-1.3,11.8-4.1,24-10.4,34.1c-5.9,9.7-13.5,18.4-22.6,25.2c-9,6.7-19.3,11.5-30,14.6
				c-14.1,4-28.8,5.4-43.3,5.4c-0.5,0-0.8,0.2-1.1,0.5c1,0.5,1.7,1.4,2.2,2.3c24.6-0.1,50.2-4.1,70.9-18.3
				c9.6-6.6,17.7-15.1,24.2-24.7c3.2-4.8,5.8-9.7,7.7-15.1c2.2-6,3.6-12.4,4.6-18.7C202.6,426.3,203.1,418.8,202.8,411.3z"/>
		</g>
	</g>
	<g>
		
			<image style="overflow:visible;opacity:0.25;enable-background:new    ;" width="760" height="881" xlink:href="A7AE437B.png"  transform="matrix(0.2743 0 0 0.2743 41.6177 101.9332)">
		</image>
		<g>
			<path class="st3" d="M224.6,111.8c-2.2-3.7-4.7-7.2-7.5-10.5c-1.2-1.4-3.2,0.6-2,2c10.1,12.2,16.2,27.1,17.2,42.9
				c0.9,15.3-2.8,30.7-9.1,44.6c-6.8,14.9-16.4,28.4-27.8,40.1c-11.3,11.6-24.4,21.5-38.8,28.8c-6.8,3.4-14,6.2-21.3,8.2
				c-8.9,2.4-18.2,4.1-27.4,4.3c1.4-3.9,2.6-7.9,3.4-12c3.7-19,0.9-43.6-18.1-53.6c-8-4.2-17.5-4.3-25.3,0.5
				c-7.2,4.5-12.2,12.1-14,20.3c-4.1,18.6,9.7,35.6,26,42.7c7.5,3.3,15.7,4.8,23.8,4.9c-3.1,7.2-7.2,14.1-12.1,20.2
				c-10.8,13.3-25.5,23.6-42.1,28.4c-3,0.9-6.1,1.5-9.1,2c0.6,0.8,0.9,1.7,1.1,2.7c16.4-2.7,31.6-10.7,43.8-22
				c9.3-8.7,16.7-19.4,21.6-31.2c2,0,4-0.1,5.9-0.3c10.4-0.8,20.8-3,30.6-6.4c15.7-5.4,30.2-14.3,42.9-25
				c13.2-11.1,24.7-24.5,33.5-39.4c8.3-14.1,14.1-29.9,15.5-46.3C236.4,141.8,232.9,125.6,224.6,111.8z M101.7,272.3
				c-10-0.5-19.8-3.1-28.2-8.7c-7.3-4.9-13.4-11.9-16.2-20.3c-2.6-8-1.6-16.5,2.6-23.7c3.9-6.8,10.7-12.5,18.8-13.2
				c9.3-0.8,18.3,4.7,23.6,12.1c6.1,8.5,7.8,19.3,7.5,29.6c-0.3,8.3-2,16.5-5,24.3C103.7,272.4,102.7,272.4,101.7,272.3z"/>
		</g>
	</g>
	
		<linearGradient id="SVGID_5_" gradientUnits="userSpaceOnUse" x1="26.1699" y1="117.7529" x2="38.8787" y2="117.7529" gradientTransform="matrix(1 0 0 -1 0 618)">
		<stop  offset="0.1964" style="stop-color:#9122F3"/>
		<stop  offset="0.9993" style="stop-color:#493BC6;stop-opacity:0.9"/>
	</linearGradient>
	<circle class="st6" cx="32.5" cy="500.2" r="6.4"/>
</g>
</svg>
